<?xml version="1.0" encoding="UTF-8"?>
<svg id="apple" data-name="Layer 1" xmlns="http://www.w3.org/2000/svg" xmlns:xlink="http://www.w3.org/1999/xlink" viewBox="0 0 238.75 262.49">
  <defs>
    <style>
      .cls-1 {
        fill: #6a994e;
      }

      .cls-2 {
        fill: #603813;
      }

      .cls-3 {
        fill: #87c38f;
      }

      .cls-4 {
        fill: url(#radial-gradient);
      }

      .cls-5 {
        fill: #ccc;
        opacity: .5;
      }

      <!-- Interactions added by me -->

      #apple:hover{
        transform: scale(0.1);
      }

      #apple{
        transition: all 0.9s ease;
      }

    </style>
    <script>
      const svg = document.querySelector("#apple");

      function printId() {
        console.log(this.id);
      }

      svg.addEventListener("click", printId);
    </script>
    <radialGradient id="radial-gradient" cx="119.38" cy="164.56" fx="119.38" fy="164.56" r="109.18" gradientUnits="userSpaceOnUse">
      <stop offset="0" stop-color="#e5faca"/>
      <stop offset=".85" stop-color="#a7c957"/>
    </radialGradient>
  </defs>
  <g id="leave">
    <path id="leave-shadow" class="cls-5" d="M36.56,13.91c-.34.28-.67.54-1.01.83t0,0c2.1,7.19,4.96,12.75,8.27,18.16,20.29,31.71,58.46,38.08,91.94,11.98L36.56,13.91Z"/>
    <path id="leave-2" data-name="leave" class="cls-1" d="M40.57,1.54c-5.93.96-11.54,2.27-17.35,4.85l107.39,41.85L23.22,6.38h0c2.53,5.83,5.78,10.59,9.5,15.31,22.94,28.17,63.81,40.38,97.89,26.54C114.88,14.98,76.52-3.68,40.57,1.54Z"/>
    <path id="leave-half1" class="cls-3" d="M128.65,47.1c.34-.15.68-.28,1.02-.44t0,0c-2.6-5.8-5.9-10.52-9.67-15.2C96.97,3.85,56.58-7.92,22.87,5.64l105.79,41.46Z"/>
    <g id="brown-stick">
      <path class="cls-2" d="M119.8,91.27c-2.87-13.51-2.34-27.8,2.12-40.96,2.89-8.19,10.53-15.23,19.35-16.07,0,0,.36.71.36.71-1.81,2.26-3.46,4.22-4.94,6.25-2.91,4.05-5.03,8.16-7.58,12.41-1.29,2.1-2.41,4.37-3.29,6.75-1.77,4.82-2.96,9.9-3.81,15.01-.86,5.17-1.33,10.48-1.43,15.8l-.79.1h0Z"/>
    </g>
  </g>
  <g id="apple-group">
    <g id="apple-circles">
      <path class="cls-4" d="M236.7,178.99c-9.86,53.65-65.81,88.33-95.07,82.95-6.55-1.2-14.04-5.27-21.47-11.5-6.71,5.72-13.48,9.53-19.52,10.85-29.07,6.35-86.14-26.44-97.78-79.73-11.64-53.29,13.27-103.99,55.63-113.24,21.22-4.63,42.8,2.01,60.51,16.5,16.93-14.16,37.62-20.96,58.33-17.15,42.64,7.84,69.22,57.68,59.37,111.32Z"/>
    </g>
  </g>
</svg>