<?xml version="1.0" encoding="UTF-8"?>
<svg id="banana" xmlns="http://www.w3.org/2000/svg" viewBox="0 0 1255.32 664.42">
  <defs>
    <style>
      .cls-1 {
        fill: #9b6312;
      }

      .cls-2 {
        fill: #e5913e;
      }

      .cls-3 {
        fill: #ffd008;
      }

      .cls-4 {
        fill: #ffeea4;
      }
    </style>
  </defs>
  <path id="stub" class="cls-1" d="M1178.93,426.91c21.59-6.75,44.74-3.18,59.61,10.51,21.36,19.67,23.54,58.26-.49,86.42l-59.12-96.93Z"/>
  <path id="stem" class="cls-1" d="M230.93,187.09s-51.2-84.08-139.08-116.95L27.33,0,0,23.12l48.35,87.24s-6.74,110.26,23.51,160.82l159.08-84.1Z"/>
  <g id="body">
    <path id="top" class="cls-3" d="M1238.76,476.26l-16-39.87c-4.13-10.28-14.95-16.19-25.84-14.14-350.14,65.84-773.33,50.87-987.12-264.49-22.15-32.67-63.88-45.81-100.86-32.01h0c-10.03,3.74-18.94,9.19-26.55,15.86,116.4,180.26,476.17,605.41,1156.37,334.65Z"/>
    <path id="bottom" class="cls-2" d="M57.74,233.9c156.78,459.68,800.51,542.67,1180.31,289.94,9.12-6.07,12.68-17.73,8.6-27.89l-7.9-19.69C558.56,747.03,198.79,321.87,82.39,141.61c-25.41,22.28-36.19,58.45-24.65,92.29Z"/>
    <path id="highlight" class="cls-4" d="M450.23,389.93c-4.14-2.33-.84-8.56,3.42-6.48,32.95,16.14,69.18,31.45,108.69,44.86,169.46,57.52,324.76,54.73,434.56,39.98,4.67-.63,5.84,6.26,1.24,7.22-63.36,13.24-143.54,21.95-235.03,13.24-132.05-12.58-238.07-56.73-312.87-98.82Z"/>
  </g>
</svg>