<?xml version="1.0" encoding="UTF-8"?>
<svg id="mainLemon" data-name="Layer 1" xmlns="http://www.w3.org/2000/svg" xmlns:xlink="http://www.w3.org/1999/xlink" viewBox="0 0 191.02 330.69">
  <defs>
    <style>
      .cls-1 {
        fill: #f3ff6a;
      }

      .cls-2 {
        fill: #96e072;
      }

      .cls-3 {
        fill: url(#radial-gradient);
      }

      .cls-4 {
        fill: #3da35d;
      }

      .cls-5 {
        fill: #ffc015;
      }

      .cls-6 {
        fill: #ccc;
        opacity: .5;
      }

      <!-- Interactions added by me -->

      #mainLemon:hover {
        transform: rotate(360deg);
        filter: invert(20%)
      }

      #mainLemon{
        transition: all 0.7s ease;
      }

    </style>
    <script>
      const svg = document.querySelector("#mainLemon");

      function printId() {
        console.log(this.id);
      }

      svg.addEventListener("click", printId);
    </script>

    <radialGradient id="radial-gradient" cx="105.03" cy="189.98" fx="105.03" fy="189.98" r="106.02" gradientUnits="userSpaceOnUse">
      <stop offset=".34" stop-color="#ffffad"/>
      <stop offset=".75" stop-color="#f3ff6a"/>
    </radialGradient>
  </defs>
  <path id="leave-shadow" class="cls-6" d="M7.39,4.37c-.37.18-.74.34-1.12.53t0,0c.37,7.09,1.79,12.86,3.68,18.58,11.84,33.79,45.82,48.37,82.6,32.05L7.39,4.37Z"/>
  <g id="leave2">
    <path id="leave2.2" class="cls-4" d="M17.71.87C11.77,1.83,6.16,3.13.36,5.71l107.39,41.85L.36,5.71h0c2.53,5.83,5.78,10.59,9.5,15.31,22.94,28.17,63.81,40.38,97.89,26.54C92.02,14.31,53.66-4.35,17.71.87Z"/>
    <path id="leave2.1" class="cls-2" d="M105.79,47.43c.34-.15.68-.28,1.02-.44t0,0c-2.6-5.8-5.9-10.52-9.67-15.2C74.1,4.18,33.71-7.58,0,5.97l105.79,41.46Z"/>
  </g>
  <g id="lemon">
    <ellipse class="cls-3" cx="105.03" cy="189.98" rx="85.99" ry="122.84"/>
    <circle class="cls-1" cx="105.03" cy="58.14" r="17.88"/>
    <g id="lemon1">
      <circle class="cls-1" cx="105.03" cy="312.81" r="17.88"/>
    </g>
  </g>
  <path id="leave-shadow2" class="cls-6" d="M14.84,108.65c.08.51.14,1.01.23,1.53t0,0c8.18,3.32,15.22,4.77,22.36,5.69,42.37,4.6,70.28-25.54,63.99-75.07L14.84,108.65Z"/>
  <g id="leave1">
    <path id="leave.2" class="cls-4" d="M19.33,94.51c-2.16,5.61-3.86,11.11-4.55,17.43L105.03,40.27,14.78,111.94h0c6.31.75,12.06.34,18.01-.49,35.89-5.63,67.03-34.77,72.25-71.19-36.65-3.17-72.1,20.57-85.7,54.25Z"/>
    <path id="leave1.1" class="cls-2" d="M103.93,41.89c.04-.37.1-.73.13-1.1t0,0c-6.32-.68-12.06-.2-18,.7C50.61,47.47,20.09,76.43,14.82,112.38L103.93,41.89Z"/>
  </g>
  <path id="orange-dots" class="cls-5" d="M180.99,224.36c0,2.56-2.08,4.64-4.64,4.64s-4.64-2.08-4.64-4.64,2.08-4.64,4.64-4.64,4.64,2.08,4.64,4.64ZM174.93,197.25c-1.78,0-3.23,1.44-3.23,3.23s1.44,3.23,3.23,3.23,3.23-1.44,3.23-3.23-1.44-3.23-3.23-3.23ZM184.21,183.52c-1.78,0-3.23,1.44-3.23,3.23s1.44,3.23,3.23,3.23,3.23-1.44,3.23-3.23-1.44-3.23-3.23-3.23ZM178.15,169.34c-1.78,0-3.23,1.44-3.23,3.23s1.44,3.23,3.23,3.23,3.23-1.44,3.23-3.23-1.44-3.23-3.23-3.23ZM160.87,233.71c-3.37,0-6.1,2.73-6.1,6.1s2.73,6.1,6.1,6.1,6.1-2.73,6.1-6.1-2.73-6.1-6.1-6.1ZM157.09,259.68c-1.28,0-2.32,1.04-2.32,2.32s1.04,2.32,2.32,2.32,2.32-1.04,2.32-2.32-1.04-2.32-2.32-2.32ZM122.91,279.44c-1.28,0-2.32,1.04-2.32,2.32s1.04,2.32,2.32,2.32,2.32-1.04,2.32-2.32-1.04-2.32-2.32-2.32ZM118.27,298.45c-1.28,0-2.32,1.04-2.32,2.32s1.04,2.32,2.32,2.32,2.32-1.04,2.32-2.32-1.04-2.32-2.32-2.32ZM140.24,279.18c-3.07,0-5.56,2.49-5.56,5.56s2.49,5.56,5.56,5.56,5.56-2.49,5.56-5.56-2.49-5.56-5.56-5.56ZM161.73,212.07c-1.28,0-2.32,1.04-2.32,2.32s1.04,2.32,2.32,2.32,2.32-1.04,2.32-2.32-1.04-2.32-2.32-2.32ZM137.01,259.68c-3.85,0-6.96,3.12-6.96,6.96s3.12,6.96,6.96,6.96,6.96-3.12,6.96-6.96-3.12-6.96-6.96-6.96ZM146.29,245.92c-1.28,0-2.32,1.04-2.32,2.32s1.04,2.32,2.32,2.32,2.32-1.04,2.32-2.32-1.04-2.32-2.32-2.32Z"/>
</svg>