<?xml version="1.0" encoding="UTF-8"?>
<svg id="main-orange" data-name="Layer 1" xmlns="http://www.w3.org/2000/svg" xmlns:xlink="http://www.w3.org/1999/xlink" viewBox="0 0 249.08 249.08">
  <defs>
    <style>
      .cls-1 {
        fill: #ff8a00;
      }

      .cls-2 {
        fill: url(#radial-gradient);
      }

      .cls-3 {
        fill: #ff9c00;
      }
    <!-- Interactions added to the svg-->

    #main-orange:hover #orange-triangules{

      transform: rotate(130deg);

    }

    #orange-triangules{
      transition: all 0.7s ease;
      transform-origin: 50%;
    }
    </style>

    <script>
      const svg = document.querySelector("#main-orange");

      function printId() {
        console.log(this.id);
      }

      svg.addEventListener("click", printId);
    </script>

    <radialGradient id="radial-gradient" cx="124.54" cy="124.54" fx="124.54" fy="124.54" r="114.46" gradientUnits="userSpaceOnUse">
      <stop offset="0" stop-color="#ffee96"/>
      <stop offset="1" stop-color="#ffeea9"/>
    </radialGradient>
  </defs>
  <g id="dark-orange-circle">
    <circle class="cls-1" cx="124.54" cy="124.54" r="124.54"/>
  </g>
  <g id="light-orange-circle">
    <circle class="cls-2" cx="124.54" cy="124.54" r="114.46"/>
  </g>
  <g id="orange-triangules">
    <path class="cls-3" d="M30.38,128.05h63.95c7.76,0,11.65,9.39,6.16,14.88l-45.22,45.22c-3.71,3.71-9.86,3.35-13.05-.81-10.78-14.09-18.05-31-20.5-49.45-.69-5.21,3.39-9.84,8.65-9.84ZM42.23,60.77c-10.78,14.09-18.05,31-20.5,49.45-.69,5.21,3.39,9.84,8.65,9.84h63.95c7.76,0,11.65-9.39,6.16-14.88l-45.22-45.22c-3.71-3.71-9.86-3.35-13.05.81ZM228.32,110.22c-2.45-18.44-9.71-35.36-20.5-49.45-3.19-4.16-9.34-4.52-13.05-.81l-45.22,45.22c-5.49,5.49-1.6,14.88,6.16,14.88h63.95c5.26,0,9.34-4.63,8.65-9.84ZM188.31,41.26c-14.09-10.78-31-18.05-49.45-20.5-5.21-.69-9.84,3.39-9.84,8.65v63.95c0,7.76,9.39,11.65,14.88,6.16l45.22-45.22c3.71-3.71,3.35-9.86-.81-13.05ZM61.74,206.85c14.09,10.78,31,18.05,49.45,20.5,5.21.69,9.84-3.39,9.84-8.65v-63.95c0-7.76-9.39-11.65-14.88-6.16l-45.22,45.22c-3.71,3.71-3.35,9.86.81,13.05ZM111.18,20.76c-18.44,2.45-35.36,9.71-49.45,20.5-4.16,3.19-4.52,9.34-.81,13.05l45.22,45.22c5.49,5.49,14.88,1.6,14.88-6.16V29.41c0-5.26-4.63-9.34-9.84-8.65ZM149.56,142.93l45.22,45.22c3.71,3.71,9.86,3.35,13.05-.81,10.78-14.09,18.05-31,20.5-49.45.69-5.21-3.39-9.84-8.65-9.84h-63.95c-7.76,0-11.65,9.39-6.16,14.88ZM138.86,227.35c18.44-2.45,35.36-9.72,49.45-20.5,4.16-3.19,4.52-9.34.81-13.05l-45.22-45.22c-5.49-5.49-14.88-1.6-14.88,6.16v63.95c0,5.26,4.63,9.34,9.84,8.65Z"/>
  </g>
</svg>