<?xml version="1.0" encoding="UTF-8"?>
<svg id="strawberry" xmlns="http://www.w3.org/2000/svg" xmlns:xlink="http://www.w3.org/1999/xlink" viewBox="0 0 218.04 301.63">
  <defs>
    <style>
      .cls-1 {
        fill: url(#radial-gradient);
      }

      .cls-2, .cls-3 {
        stroke: #7ac74f;
        stroke-miterlimit: 10;
      }

      .cls-2, .cls-4 {
        fill: #7ac74f;
      }

      .cls-3 {
        fill: none;
        stroke-width: 16px;
      }

      .cls-5 {
        fill: #f4c74f;
      }

      .cls-6 {
        fill: #b3b3b3;
        opacity: .5;
      }

 <!-- Interactions added to the svg-->
 
#strawberry:hover{
  transform: scale(0.7);
  filter: invert(70%)
}

 #strawberry{
      transition: all 0.7s ease;
       transform-origin: 50%;
    }


    </style>
    <radialGradient id="radial-gradient" cx="107.35" cy="180.38" fx="107.35" fy="180.38" r="114.51" gradientUnits="userSpaceOnUse">
      <stop offset="0" stop-color="#df7373"/>
      <stop offset=".24" stop-color="#dc6261"/>
      <stop offset=".49" stop-color="#da5552"/>
      <stop offset=".52" stop-color="#d85251"/>
      <stop offset=".75" stop-color="#cf474c"/>
      <stop offset="1" stop-color="#cc444b"/>
    </radialGradient>
  </defs>
  <path id="strawberry-shape" class="cls-1" d="M206.23,180.38c-11.7,40.84-64.72,121.25-100.53,121.25-30.99,0-90.98-74.64-100.53-121.25C-19.68,59.12,50.18,59.12,105.7,59.12s135.28,0,100.53,121.25Z"/>
  <path id="leave-shadow" class="cls-6" d="M183.36,52.85c23.59,12.39,38.69,30.05,33.73,39.44-4.97,9.39-28.12,6.95-51.71-5.45-23.59-12.39-38.69-30.05-33.73-39.44,4.97-9.39,28.12-6.95,51.71,5.45ZM115.24,54.1c-8.43,8.58-.24,30.18,18.3,48.26s40.41,25.77,48.84,17.2c8.43-8.58.24-30.18-18.3-48.26-18.54-18.08-40.41-25.77-48.84-17.2ZM117.3,37.92c-15.5,0-28.07,21.9-28.07,48.91s12.57,48.91,28.07,48.91,28.07-21.9,28.07-48.91-12.57-48.91-28.07-48.91Z"/>
  <g id="leaves">
    <path id="leave6" class="cls-3" d="M107.35,47.39s3.06-37.03,21.83-39.45"/>
    <ellipse id="leave5" class="cls-4" cx="111.06" cy="83.62" rx="21.83" ry="46.78"/>
    <ellipse id="leave4" class="cls-4" cx="59.95" cy="64.27" rx="53.33" ry="21.75" transform="translate(-19.85 27.43) rotate(-22.21)"/>
    <ellipse id="leave3" class="cls-2" cx="157.72" cy="63.77" rx="21.75" ry="53.36" transform="translate(41.18 187.71) rotate(-68.77)"/>
    <ellipse id="leave2" class="cls-4" cx="140.07" cy="83.62" rx="21.78" ry="46.89" transform="translate(-17.53 125.74) rotate(-45.8)"/>
    <ellipse id="leave1" class="cls-4" cx="85.28" cy="82.2" rx="46.87" ry="21.79" transform="translate(-32.88 90.48) rotate(-47.95)"/>
  </g>
  <path id="seeds" class="cls-5" d="M34.82,146.67c0,3.38-1.26,6.13-2.82,6.13s-2.82-2.74-2.82-6.13,1.26-6.13,2.82-6.13,2.82,2.74,2.82,6.13ZM77.56,140.54c-1.56,0-2.82,2.74-2.82,6.13s1.26,6.13,2.82,6.13,2.82-2.74,2.82-6.13-1.26-6.13-2.82-6.13ZM179.79,143.02c-1.56,0-2.82,2.74-2.82,6.13s1.26,6.13,2.82,6.13,2.82-2.74,2.82-6.13-1.26-6.13-2.82-6.13ZM129.18,140.54c-1.56,0-2.82,2.74-2.82,6.13s1.26,6.13,2.82,6.13,2.82-2.74,2.82-6.13-1.26-6.13-2.82-6.13ZM103.18,174.25c-1.56,0-2.82,2.74-2.82,6.13s1.26,6.13,2.82,6.13,2.82-2.74,2.82-6.13-1.26-6.13-2.82-6.13ZM55.45,180.38c-1.56,0-2.82,2.74-2.82,6.13s1.26,6.13,2.82,6.13,2.82-2.74,2.82-6.13-1.26-6.13-2.82-6.13ZM154.9,180.38c-1.56,0-2.82,2.74-2.82,6.13s1.26,6.13,2.82,6.13,2.82-2.74,2.82-6.13-1.26-6.13-2.82-6.13ZM129.18,210.72c-1.56,0-2.82,2.74-2.82,6.13s1.26,6.13,2.82,6.13,2.82-2.74,2.82-6.13-1.26-6.13-2.82-6.13ZM77.56,210.72c-1.56,0-2.82,2.74-2.82,6.13s1.26,6.13,2.82,6.13,2.82-2.74,2.82-6.13-1.26-6.13-2.82-6.13ZM37.64,210.72c-1.56,0-2.82,2.74-2.82,6.13s1.26,6.13,2.82,6.13,2.82-2.74,2.82-6.13-1.26-6.13-2.82-6.13ZM170.73,212.85c-1.56,0-2.82,2.74-2.82,6.13s1.26,6.13,2.82,6.13,2.82-2.74,2.82-6.13-1.26-6.13-2.82-6.13ZM145.99,244.21c-1.56,0-2.82,2.74-2.82,6.13s1.26,6.13,2.82,6.13,2.82-2.74,2.82-6.13-1.26-6.13-2.82-6.13ZM103.18,230.35c-1.56,0-2.82,2.74-2.82,6.13s1.26,6.13,2.82,6.13,2.82-2.74,2.82-6.13-1.26-6.13-2.82-6.13ZM104.53,276.38c-1.56,0-2.82,2.74-2.82,6.13s1.26,6.13,2.82,6.13,2.82-2.74,2.82-6.13-1.26-6.13-2.82-6.13ZM64.6,244.21c-1.56,0-2.82,2.74-2.82,6.13s1.26,6.13,2.82,6.13,2.82-2.74,2.82-6.13-1.26-6.13-2.82-6.13Z"/>
</svg>